<?xml version="1.0" encoding="utf-8"?>
<!-- Generator: Adobe Illustrator 16.0.4, SVG Export Plug-In . SVG Version: 6.00 Build 0)  -->
<!DOCTYPE svg PUBLIC "-//W3C//DTD SVG 1.1//EN" "http://www.w3.org/Graphics/SVG/1.1/DTD/svg11.dtd">
<svg version="1.1" id="Layer_1" xmlns="http://www.w3.org/2000/svg" xmlns:xlink="http://www.w3.org/1999/xlink" x="0px" y="0px"
	 width="40px" height="40px" viewBox="0 0 40 40" enable-background="new 0 0 40 40" xml:space="preserve">
<path fill-rule="evenodd" clip-rule="evenodd" fill="#010101" d="M12.587,4.412c1.254-0.298,2.272-0.438,3.219-0.786
	c3.635-1.342,8.261-0.873,11.327,1.292C26.6,5.9,26.056,6.911,25.503,7.904c-1.304,2.291-1.34,4.7-0.725,7.19
	c0.635,2.492,1.998,4.658,3.054,6.964c1.613,3.548,1.955,7.188,0,10.723c-1.22,2.185-2.839,4.043-5.402,4.8
	c-2.172,0.641-4.245,0.177-6.052-0.875c-2.78-1.615-4.86-3.906-5.469-7.252c-0.481-2.603,0.465-4.821,1.678-7.016
	c1.533-2.735,3.034-5.505,3.066-8.725c0.034-3.132-0.794-6.039-2.828-8.507C12.645,4.984,12.649,4.618,12.587,4.412 M15.313,6.68
	c1.684,3.043,1.964,5.985,1.576,9.017c-0.099,0.752-0.26,1.534-0.58,2.21c-1.059,2.239-2.256,4.418-3.293,6.676
	c-1.331,2.916-1.088,5.742,1.056,8.198c0.897,1.011,1.979,1.918,3.116,2.653c2.751,1.771,5.723,0.973,7.685-1.034
	c3.272-3.342,3.522-8.608,1.383-12.512c-0.944-1.708-1.789-3.474-2.472-5.289c-1.025-2.756-1.367-5.583-0.131-8.412
	c0.131-0.315,0.163-0.67,0.312-1.332C20.989,8.157,18.318,7.175,15.313,6.68"/>
<g>
</g>
<g>
</g>
<g>
</g>
<g>
</g>
<g>
</g>
<g>
</g>
</svg>
