<?xml version="1.0" encoding="utf-8"?>
<!-- Generator: Adobe Illustrator 16.0.4, SVG Export Plug-In . SVG Version: 6.00 Build 0)  -->
<!DOCTYPE svg PUBLIC "-//W3C//DTD SVG 1.1//EN" "http://www.w3.org/Graphics/SVG/1.1/DTD/svg11.dtd">
<svg version="1.1" id="Layer_1" xmlns="http://www.w3.org/2000/svg" xmlns:xlink="http://www.w3.org/1999/xlink" x="0px" y="0px"
	 width="40px" height="40px" viewBox="0 0 40 40" enable-background="new 0 0 40 40" xml:space="preserve">
<path fill-rule="evenodd" clip-rule="evenodd" fill="#010101" d="M5.234,35.962c-1.354-1.686-0.891-3.545-1.055-5.281
	c-0.123-1.337-0.072-2.704-0.127-4.047c-0.063-1.488,0.11-1.701,1.601-1.859c2.08-0.215,4.166-0.438,6.527-0.684
	c-1.033-0.488-1.835-0.879-2.653-1.247c-1.279-0.583-2.329-1.377-2.956-2.69c-0.35-0.719-0.836-1.38-1.274-2.043
	C3.161,14.952,3.791,9.29,6.48,6.708c1.818-1.745,3.955-2.913,6.521-3.646c4.182-1.2,10.142,2.667,11.388,5.87
	c0.454,1.179,0.846,2.386,1.473,3.523c0-0.987,0.018-1.967-0.006-2.956C25.821,7.77,25.78,6.037,25.704,4.3
	c-0.046-1.08,0.267-1.427,1.311-1.478c1.66-0.086,3.324-0.138,4.965-0.359c1.615-0.215,3.036,0.338,4.532,0.586
	c0,1.589-0.014,3.002,0,4.426c0.05,4.257,0.089,8.521,0.176,12.779c0.085,4.578,0.214,9.152,0.328,13.729
	c0.007,0.492-0.075,0.982-0.097,1.479c-0.07,0.982-0.679,1.223-1.54,1.184c-2.286-0.091-4.565-0.151-6.842-0.264
	c-0.731-0.037-1.464-0.201-2.193-0.301c-0.303-0.044-0.634-0.146-0.914-0.083c-3.026,0.757-6.045,0.062-9.069,0
	c-2.59-0.047-5.174-0.034-7.765-0.037C7.485,35.952,6.378,35.962,5.234,35.962 M5.169,13.148c0.139,5.383,3.829,9.786,9.768,10.063
	c4.697,0.226,9.625-3.908,9.576-9.973c-0.045-4.299-4.784-9.277-9.097-9.343C9.98,3.818,4.843,8.043,5.169,13.148 M25.931,25.491
	c-2.232,0.174-4.311,0.334-6.396,0.498c-0.675,0.057-1.354,0.194-2.032,0.182c-1.838-0.043-3.674-0.167-5.518-0.226
	c-1.477-0.037-2.968-0.037-4.45-0.056c-0.842-0.003-1.69,0-2.266,0c0,2.488-0.053,4.721,0.013,6.957
	c0.051,1.829,0.724,2.358,2.433,2.187c3.636-0.357,7.263-0.442,10.919-0.01c2.372,0.281,4.824,0.487,7.297-0.469V25.491z
	 M35.417,3.769c-1.623,0-2.968-0.063-4.308,0.016c-1.389,0.075-2.765,0.28-4.273,0.437c0.16,6.573,0.322,13.232,0.474,19.905
	c6.756,0.612,5.481,0.82,8.007-0.551C34.74,17.093,35.381,10.61,35.417,3.769 M27.158,25.475c0,1.702-0.023,3.117,0.006,4.534
	c0.017,1.282,0.026,2.572,0.128,3.847c0.083,0.937,0.681,1.418,1.642,1.411c1.868-0.02,3.737,0.026,5.606-0.02
	c1.217-0.026,1.302-0.146,1.327-1.472c0.027-1.798,0.027-3.588,0.016-5.387c-0.003-0.554-0.033-1.119-0.126-1.669
	c-0.179-1.038-0.475-1.187-1.536-1.079c-0.972,0.097-1.96,0.15-2.935,0.124C29.999,25.726,28.708,25.588,27.158,25.475
	 M26.095,14.159c-0.124-0.041-0.253-0.079-0.385-0.113c-0.743,5.991-3.999,9.568-9.989,10.561c3.494,0.521,6.844-0.191,10.232-0.413
	c0.068-0.592,0.133-0.955,0.133-1.316C26.098,19.969,26.095,17.062,26.095,14.159"/>
<g>
</g>
<g>
</g>
<g>
</g>
<g>
</g>
<g>
</g>
<g>
</g>
</svg>
