<?xml version="1.0" encoding="utf-8"?>
<!-- Generator: Adobe Illustrator 16.0.4, SVG Export Plug-In . SVG Version: 6.00 Build 0)  -->
<!DOCTYPE svg PUBLIC "-//W3C//DTD SVG 1.1//EN" "http://www.w3.org/Graphics/SVG/1.1/DTD/svg11.dtd">
<svg version="1.1" id="Layer_1" xmlns="http://www.w3.org/2000/svg" xmlns:xlink="http://www.w3.org/1999/xlink" x="0px" y="0px"
	 width="40px" height="40px" viewBox="0 0 40 40" enable-background="new 0 0 40 40" xml:space="preserve">
<path fill-rule="evenodd" clip-rule="evenodd" fill="#010101" d="M10.528,2.017c4.812,0.053,8.169,3.376,8.073,6.797
	c-0.153,5.347-3.896,9.251-9.055,8.979c-3.719-0.183-7.063-4.138-7.068-8.63C2.474,5.403,6.336,1.968,10.528,2.017 M17.298,8.884
	c0.151-2.849-3.042-5.872-5.894-5.481C9.188,3.708,7.212,4.574,5.521,6.143C4.158,7.424,3.88,8.855,4.339,10.544
	c0.173,0.632,0.398,1.257,0.62,1.87c0.85,2.205,4.075,4.039,6.409,3.704C14.64,15.652,16.852,12.449,17.298,8.884"/>
<path fill-rule="evenodd" clip-rule="evenodd" fill="#010101" d="M29.158,37.039c-3.638,0.598-7.429-4.993-7.334-8.037
	c0.146-4.644,3.094-7.583,7.939-7.503c3.836,0.062,7.563,3.916,7.713,7.744C37.589,32.62,33.351,37.4,29.158,37.039 M29.19,22.964
	c-2.095,0.008-4.627,1.995-5.408,4.214c-0.803,2.295-0.19,5.062,1.702,6.575c0.93,0.742,1.687,1.843,3.142,1.846
	c3.318,0.005,6.79-2.969,7.264-6.177c0.231-1.548-0.874-2.43-1.443-3.564C33.387,23.724,31.502,22.918,29.19,22.964"/>
<path fill-rule="evenodd" clip-rule="evenodd" fill="#010101" d="M30.926,16.863c-1.091,0.332-1.428,0.107-1.597-0.664
	c-0.747-3.394-0.977-6.822-0.918-10.281c0.018-0.879-0.114-1.755-0.044-2.615c0.02-0.343,0.413-0.648,0.647-0.972
	c0.329,0.293,0.935,0.57,0.964,0.896C30.34,7.742,30.621,12.256,30.926,16.863"/>
<path fill-rule="evenodd" clip-rule="evenodd" fill="#010101" d="M10.152,22.547c1.135,1.558,1.11,2.969,1.208,4.316
	c0.193,2.634,0.296,5.275,0.371,7.907c0.022,0.848-0.166,1.697-0.259,2.588c-1.296,0-1.484-0.92-1.354-1.501
	c0.518-2.327-0.332-4.512-0.474-6.768c-0.115-1.611-0.146-3.226-0.117-4.837C9.529,23.772,9.856,23.296,10.152,22.547"/>
<g>
</g>
<g>
</g>
<g>
</g>
<g>
</g>
<g>
</g>
<g>
</g>
</svg>
