<?xml version="1.0" encoding="utf-8"?>
<!-- Generator: Adobe Illustrator 16.0.4, SVG Export Plug-In . SVG Version: 6.00 Build 0)  -->
<!DOCTYPE svg PUBLIC "-//W3C//DTD SVG 1.1//EN" "http://www.w3.org/Graphics/SVG/1.1/DTD/svg11.dtd">
<svg version="1.1" id="Layer_1" xmlns="http://www.w3.org/2000/svg" xmlns:xlink="http://www.w3.org/1999/xlink" x="0px" y="0px"
	 width="40px" height="40px" viewBox="0 0 40 40" enable-background="new 0 0 40 40" xml:space="preserve">
<path fill-rule="evenodd" clip-rule="evenodd" fill="#010101" d="M3.47,14.508c1.46-1.619,4.44-1.996,6.091-1.059
	c0.805,0.46,1.582,0.997,2.268,1.607c0.403,0.36,0.786,0.918,0.858,1.434c0.319,2.141-0.103,4.062-1.565,5.811
	c-1.019,1.218-1.762,2.669-2.557,4.068c-0.418,0.733-0.37,1.554-0.017,2.344c0.629,1.411,1.064,2.882,2.641,3.692
	c1.769,0.912,3.094,0.954,4.694-0.602c1.993-1.936,3.584-4.105,4.236-6.965c0.607-2.614,1.681-5.119,2.492-7.692
	c0.304-0.983,0.439-2.024,0.68-3.031c0.43-1.793,0.918-3.576,1.315-5.376c0.173-0.783,0.232-1.589,0.308-2.383
	c0.056-0.521,0.25-1.006,0.795-0.926c0.594,0.085,0.482,0.553,0.363,1.075c-0.791,3.781-1.516,7.583-2.291,11.359
	c-0.37,1.787-0.33,1.965,1.487,3.08c0.981-0.78,2.051-1.545,3.021-2.423c1.485-1.348,2.889-2.81,4.378-4.161
	c1.048-0.947,2.075-1.98,3.633-2.241c0.451,0.937-0.077,1.451-0.707,1.693c-1.312,0.492-2.134,1.521-3.087,2.443
	c-1.818,1.75-3.722,3.403-5.611,5.076c-2.507,2.217-4.76,4.638-6.7,7.374c-1.065,1.492-2.265,2.963-3.668,4.114
	c-1.883,1.558-3.816,1.66-6.057,0.312c-2.769-1.671-3.877-6.533-1.786-9.327c0.865-1.147,1.601-2.394,2.449-3.549
	c0.843-1.148,0.565-2.431,0.557-3.684c-0.005-0.055-0.018-0.112-0.032-0.166c-0.383-1.109-3.411-2.763-4.583-2.493
	c-0.787,0.186-1.562,0.429-2.354,0.58C4.32,14.571,3.884,14.508,3.47,14.508"/>
<g>
</g>
<g>
</g>
<g>
</g>
<g>
</g>
<g>
</g>
<g>
</g>
</svg>
