<?xml version="1.0" encoding="utf-8"?>
<!-- Generator: Adobe Illustrator 16.2.1, SVG Export Plug-In . SVG Version: 6.00 Build 0)  -->
<!DOCTYPE svg PUBLIC "-//W3C//DTD SVG 1.1//EN" "http://www.w3.org/Graphics/SVG/1.1/DTD/svg11.dtd">
<svg version="1.1" id="Layer_1" xmlns="http://www.w3.org/2000/svg" xmlns:xlink="http://www.w3.org/1999/xlink" x="0px" y="0px"
	 width="398px" height="178px" viewBox="0 0 398 178" enable-background="new 0 0 398 178" xml:space="preserve">
<g id="Layer_1_1_">
</g>
<g id="Layer_2">
	<g>
		<path fill="#FFFFFF" d="M342.062,148.486c-0.406,0-0.718,0.156-0.935,0.472c-0.215,0.313-0.323,1.242-0.323,2.784v13.982
			c0,1.738,0.07,2.812,0.213,3.219c0.143,0.408,0.473,0.611,0.99,0.611c0.529,0,0.869-0.234,1.018-0.703
			c0.147-0.469,0.222-1.586,0.222-3.349v-13.762c0-1.394-0.076-2.285-0.23-2.673C342.862,148.682,342.545,148.486,342.062,148.486z"
			/>
		<path fill="#FFFFFF" d="M27.368,163.303h2.681c-0.394-3.392-0.79-7.584-1.186-12.578C28.069,156.459,27.57,160.65,27.368,163.303z
			"/>
		<path fill="#FFFFFF" d="M297.229,148.486c-0.408,0-0.72,0.156-0.936,0.472s-0.322,1.242-0.322,2.784v13.982
			c0,1.738,0.068,2.812,0.211,3.219c0.143,0.408,0.473,0.611,0.99,0.611c0.529,0,0.869-0.234,1.018-0.703
			c0.147-0.469,0.222-1.586,0.222-3.349v-13.762c0-1.394-0.076-2.285-0.229-2.673C298.025,148.682,297.708,148.486,297.229,148.486z
			"/>
		<path fill="#FFFFFF" d="M-1,0v179h399V0H-1z M311.397,3.398h69.585v25.688h-18.909v102.669H330.23V29.086h-18.833V3.398z
			 M293.716,105.592h23.069v26.163h-23.069V105.592z M186.165,105.592h23.067v26.163h-23.067V105.592L186.165,105.592z
			 M116.296,3.398h46.024l18.208,128.356h-32.542l-1.709-23.07h-11.391l-1.915,23.07h-32.92L116.296,3.398z M70.509,105.592h23.069
			v26.163H70.509V105.592z M4.09,3.398h57.643v25.688H35.932v24.339h24.439v24.418H35.932v28.224H63.85v25.688H4.09V3.398z
			 M18.476,173.994H4.973v-29.947h12.985v5.993H12.76v5.68h4.865v5.697H12.76v6.585h5.716V173.994z M30.67,173.994l-0.418-5.383
			h-2.786l-0.468,5.383h-8.051l3.972-29.947h11.255l4.454,29.947H30.67z M56.349,171.052c-0.5,1.013-1.464,1.859-2.895,2.546
			c-1.431,0.684-3.096,1.024-4.995,1.024c-2.084,0-3.863-0.394-5.336-1.185c-1.474-0.787-2.439-1.793-2.895-3.015
			c-0.457-1.221-0.685-2.953-0.685-5.196v-1.961h7.232v3.644c0,1.122,0.102,1.844,0.305,2.165c0.204,0.318,0.564,0.479,1.082,0.479
			s0.903-0.202,1.156-0.61c0.252-0.406,0.379-1.012,0.379-1.812c0-1.763-0.241-2.916-0.722-3.459
			c-0.494-0.541-1.708-1.447-3.644-2.719c-1.936-1.281-3.219-2.213-3.848-2.793s-1.15-1.381-1.563-2.405
			c-0.413-1.022-0.619-2.33-0.619-3.921c0-2.293,0.292-3.971,0.878-5.03c0.585-1.062,1.532-1.89,2.839-2.489
			c1.307-0.598,2.885-0.896,4.735-0.896c2.022,0,3.746,0.327,5.17,0.979c1.424,0.653,2.368,1.478,2.83,2.47
			c0.462,0.993,0.694,2.681,0.694,5.061v1.183h-7.233v-2.219c0-1.037-0.092-1.695-0.277-1.979s-0.493-0.427-0.925-0.427
			c-0.468,0-0.823,0.19-1.063,0.574c-0.24,0.383-0.361,0.963-0.361,1.739c0,1,0.135,1.753,0.406,2.259
			c0.258,0.506,0.991,1.115,2.2,1.832c3.467,2.057,5.65,3.744,6.55,5.063c0.9,1.319,1.35,3.446,1.35,6.383
			C57.098,168.471,56.848,170.042,56.349,171.052z M75.225,150.04h-4.624v23.954h-7.788V150.04h-4.605v-5.993h17.017V150.04z
			 M93.634,173.994l-0.418-5.383H90.43l-0.468,5.383h-8.051l3.972-29.947h11.255l4.453,29.947H93.634z M120.617,164.061
			c0,2.271-0.074,3.863-0.222,4.782c-0.148,0.918-0.586,1.862-1.313,2.83c-0.728,0.968-1.687,1.701-2.876,2.201
			c-1.19,0.499-2.593,0.748-4.208,0.748c-1.789,0-3.367-0.295-4.735-0.888c-1.369-0.592-2.393-1.361-3.07-2.312
			c-0.678-0.949-1.08-1.951-1.202-3.006c-0.124-1.055-0.186-3.271-0.186-6.648v-17.722h7.787v22.456
			c0,1.307,0.071,2.143,0.213,2.507c0.142,0.362,0.428,0.546,0.86,0.546c0.493,0,0.811-0.201,0.952-0.602
			c0.142-0.402,0.213-1.348,0.213-2.84v-22.067h7.787V164.061z M140.029,171.052c-0.5,1.013-1.464,1.859-2.895,2.546
			c-1.431,0.684-3.095,1.024-4.994,1.024c-2.084,0-3.863-0.394-5.336-1.185c-1.474-0.787-2.439-1.793-2.895-3.015
			c-0.456-1.221-0.685-2.953-0.685-5.196v-1.961h7.232v3.644c0,1.122,0.102,1.844,0.305,2.165c0.204,0.318,0.564,0.479,1.083,0.479
			c0.519,0,0.903-0.202,1.156-0.61c0.252-0.406,0.379-1.012,0.379-1.812c0-1.763-0.24-2.916-0.722-3.459
			c-0.493-0.541-1.708-1.447-3.644-2.719c-1.936-1.281-3.219-2.213-3.848-2.793s-1.15-1.381-1.563-2.405
			c-0.413-1.022-0.62-2.33-0.62-3.921c0-2.293,0.292-3.971,0.879-5.03c0.585-1.062,1.532-1.89,2.839-2.489
			c1.307-0.598,2.886-0.896,4.736-0.896c2.022,0,3.745,0.327,5.169,0.979c1.424,0.653,2.368,1.478,2.83,2.47
			c0.462,0.993,0.694,2.681,0.694,5.061v1.183h-7.232v-2.219c0-1.037-0.092-1.695-0.278-1.979c-0.185-0.284-0.493-0.427-0.925-0.427
			c-0.468,0-0.823,0.19-1.063,0.574c-0.24,0.383-0.36,0.963-0.36,1.739c0,1,0.135,1.753,0.406,2.259
			c0.258,0.506,0.991,1.115,2.2,1.832c3.467,2.057,5.649,3.744,6.55,5.063c0.9,1.319,1.351,3.446,1.351,6.383
			C140.779,168.471,140.529,170.042,140.029,171.052z M158.905,150.04h-4.624v23.954h-7.787V150.04h-4.606v-5.993h17.017V150.04z
			 M168.468,173.994h-7.787v-29.947h7.787V173.994z M188.982,173.994h-6.826l-4.051-13.614v13.614h-6.511v-29.947h6.511
			l4.366,13.484v-13.484h6.511V173.994z M215.184,171.052c-0.5,1.013-1.465,1.859-2.896,2.546c-1.43,0.684-3.096,1.024-4.994,1.024
			c-2.083,0-3.861-0.394-5.336-1.185c-1.475-0.787-2.438-1.793-2.895-3.015c-0.457-1.221-0.685-2.953-0.685-5.196v-1.961h7.232
			v3.644c0,1.122,0.103,1.844,0.306,2.165c0.203,0.318,0.563,0.479,1.082,0.479s0.901-0.202,1.155-0.61
			c0.252-0.406,0.38-1.012,0.38-1.812c0-1.763-0.241-2.916-0.722-3.459c-0.494-0.541-1.709-1.447-3.645-2.719
			c-1.938-1.281-3.219-2.213-3.848-2.793s-1.149-1.381-1.562-2.405c-0.414-1.022-0.621-2.33-0.621-3.921
			c0-2.293,0.294-3.971,0.88-5.03c0.584-1.062,1.531-1.89,2.838-2.489c1.308-0.598,2.887-0.896,4.735-0.896
			c2.022,0,3.746,0.327,5.171,0.979c1.424,0.653,2.366,1.478,2.829,2.47c0.462,0.993,0.694,2.681,0.694,5.061v1.183h-7.232v-2.219
			c0-1.037-0.094-1.695-0.277-1.979c-0.186-0.284-0.494-0.427-0.924-0.427c-0.471,0-0.824,0.19-1.064,0.574
			c-0.24,0.383-0.36,0.963-0.36,1.739c0,1,0.136,1.753,0.405,2.259c0.258,0.506,0.99,1.115,2.199,1.832
			c3.468,2.057,5.65,3.744,6.552,5.063c0.899,1.319,1.351,3.446,1.351,6.383C215.932,168.471,215.682,170.042,215.184,171.052z
			 M234.061,150.04h-4.625v23.954h-7.787V150.04h-4.605v-5.993h17.018V150.04L234.061,150.04z M253.537,164.061
			c0,2.271-0.074,3.863-0.223,4.782c-0.146,0.918-0.586,1.862-1.312,2.83c-0.729,0.968-1.688,1.701-2.876,2.201
			c-1.19,0.499-2.594,0.748-4.208,0.748c-1.789,0-3.367-0.295-4.736-0.888c-1.367-0.592-2.392-1.361-3.07-2.312
			c-0.678-0.951-1.078-1.951-1.201-3.006s-0.186-3.271-0.186-6.648v-17.722h7.787v22.456c0,1.307,0.07,2.143,0.213,2.507
			c0.143,0.362,0.428,0.546,0.859,0.546c0.493,0,0.811-0.201,0.953-0.602c0.143-0.402,0.213-1.348,0.213-2.84v-22.067h7.787V164.061
			z M274.587,165.098c0,2.688-0.127,4.484-0.38,5.392s-0.693,1.616-1.322,2.127c-0.629,0.513-1.406,0.87-2.33,1.073
			c-0.926,0.203-2.318,0.306-4.181,0.306h-9.821v-29.947h5.825c3.761,0,6.306,0.173,7.631,0.519s2.335,0.912,3.024,1.701
			c0.689,0.791,1.122,1.668,1.294,2.637c0.173,0.969,0.26,2.869,0.26,5.707V165.098L274.587,165.098z M285.277,173.994h-7.786
			v-29.947h7.786V173.994z M284.3,119.32c-2.042,4.285-5.987,7.879-11.837,10.779c-5.85,2.899-12.656,4.351-20.422,4.351
			c-8.521,0-15.796-1.673-21.82-5.019c-6.025-3.344-9.973-7.603-11.838-12.777c-1.865-5.172-2.799-12.516-2.799-22.026v-8.311
			h29.574v15.444c0,4.755,0.416,7.812,1.248,9.171c0.832,1.359,2.307,2.039,4.425,2.039s3.692-0.863,4.728-2.587
			c1.032-1.726,1.551-4.286,1.551-7.683c0-7.473-0.982-12.36-2.949-14.66c-2.018-2.298-6.985-6.14-14.901-11.523
			c-7.916-5.435-13.159-9.38-15.731-11.837c-2.57-2.456-4.702-5.853-6.392-10.191c-1.688-4.337-2.532-9.877-2.532-16.619
			c0-9.721,1.196-16.827,3.592-21.322c2.396-4.495,6.266-8.008,11.611-10.544c5.344-2.534,11.799-3.802,19.361-3.802
			c8.27,0,15.314,1.385,21.141,4.154c5.823,2.771,9.682,6.259,11.571,10.465c1.892,4.208,2.837,11.355,2.837,21.44v5.018h-29.572
			v-9.408c0-4.39-0.379-7.185-1.136-8.388c-0.757-1.201-2.018-1.803-3.782-1.803c-1.916,0-3.365,0.811-4.349,2.433
			c-0.981,1.622-1.476,4.079-1.476,7.373c0,4.236,0.553,7.427,1.658,9.571c1.056,2.145,4.056,4.731,8.998,7.759
			c14.176,8.72,23.103,15.875,26.783,21.467c3.68,5.593,5.521,14.607,5.521,27.046C287.363,108.372,286.342,115.036,284.3,119.32z
			 M306.198,161.583c0,3.009-0.071,5.14-0.212,6.39c-0.144,1.252-0.588,2.396-1.334,3.432c-0.744,1.035-1.754,1.832-3.023,2.387
			c-1.271,0.555-2.75,0.832-4.439,0.832c-1.603,0-3.043-0.262-4.317-0.786c-1.276-0.522-2.304-1.31-3.08-2.356
			s-1.239-2.189-1.387-3.422c-0.148-1.234-0.222-3.393-0.222-6.475v-5.124c0-3.009,0.068-5.14,0.211-6.392
			c0.143-1.25,0.586-2.396,1.332-3.432c0.746-1.035,1.754-1.832,3.023-2.387c1.271-0.555,2.75-0.832,4.439-0.832
			c1.603,0,3.043,0.264,4.318,0.786c1.276,0.524,2.305,1.312,3.079,2.358c0.777,1.049,1.24,2.188,1.388,3.422
			c0.147,1.232,0.224,3.392,0.224,6.475V161.583L306.198,161.583z M331.466,150.04h-4.625v23.954h-7.787V150.04h-4.604v-5.993
			h17.018L331.466,150.04L331.466,150.04z M351.034,161.583c0,3.009-0.071,5.14-0.212,6.39c-0.143,1.252-0.586,2.396-1.332,3.432
			s-1.755,1.832-3.025,2.387c-1.27,0.555-2.749,0.832-4.438,0.832c-1.604,0-3.043-0.262-4.318-0.786
			c-1.276-0.522-2.304-1.31-3.081-2.356c-0.774-1.049-1.238-2.189-1.386-3.422c-0.149-1.234-0.223-3.393-0.223-6.475v-5.124
			c0-3.009,0.069-5.14,0.212-6.392c0.143-1.25,0.587-2.396,1.332-3.432c0.745-1.035,1.754-1.832,3.023-2.387
			c1.271-0.555,2.75-0.832,4.439-0.832c1.603,0,3.042,0.264,4.318,0.786c1.276,0.524,2.304,1.312,3.079,2.358
			c0.777,1.049,1.24,2.188,1.389,3.422c0.146,1.232,0.222,3.392,0.222,6.475V161.583L351.034,161.583z M371.641,164.061
			c0,2.271-0.073,3.863-0.222,4.782c-0.146,0.918-0.586,1.862-1.312,2.83c-0.728,0.968-1.687,1.701-2.876,2.201
			c-1.19,0.499-2.594,0.748-4.208,0.748c-1.789,0-3.367-0.295-4.736-0.888c-1.368-0.592-2.393-1.361-3.07-2.312
			c-0.678-0.949-1.079-1.951-1.202-3.006s-0.185-3.271-0.185-6.648v-17.722h7.788v22.456c0,1.307,0.068,2.143,0.212,2.507
			c0.142,0.362,0.428,0.546,0.86,0.546c0.491,0,0.81-0.201,0.951-0.602c0.144-0.402,0.213-1.348,0.213-2.84v-22.067h7.787V164.061z
			 M390.859,159.898c0.529,0.643,0.859,1.229,0.989,1.767c0.128,0.537,0.193,2.015,0.193,4.431v7.898h-7.232v-9.951
			c0-1.604-0.127-2.598-0.379-2.979c-0.253-0.383-0.916-0.574-1.987-0.574v13.504h-7.787v-29.947h5.512
			c3.674,0,6.162,0.143,7.464,0.426c1.3,0.283,2.361,1.008,3.183,2.174c0.818,1.166,1.229,3.023,1.229,5.576
			c0,2.331-0.29,3.896-0.87,4.698c-0.579,0.802-1.72,1.283-3.421,1.442C389.293,158.746,390.328,159.259,390.859,159.898z
			 M394.824,131.755h-23.068v-26.163h23.068V131.755z"/>
		<path fill="#FFFFFF" d="M140.594,32.02c-3.244,24.578-5.281,42.549-6.111,53.91h10.961
			C143.832,71.392,142.216,53.422,140.594,32.02z"/>
		<path fill="#FFFFFF" d="M266.078,149.438c-0.309-0.178-0.889-0.269-1.738-0.269v19.7c1.121,0,1.812-0.225,2.071-0.676
			c0.259-0.449,0.389-1.674,0.389-3.672v-11.635c0-1.355-0.044-2.226-0.13-2.607C266.583,149.898,266.386,149.618,266.078,149.438z"
			/>
		<path fill="#FFFFFF" d="M90.332,163.303h2.681c-0.394-3.392-0.79-7.584-1.187-12.578C91.033,156.459,90.534,160.65,90.332,163.303
			z"/>
		<path fill="#FFFFFF" d="M382.443,149.17v6.66c0.875,0,1.487-0.12,1.841-0.361c0.351-0.24,0.525-1.02,0.525-2.34v-1.646
			c0-0.949-0.169-1.572-0.509-1.868C383.963,149.318,383.343,149.17,382.443,149.17z"/>
	</g>
</g>
</svg>
