<?xml version="1.0" encoding="utf-8"?>
<!-- Generator: Adobe Illustrator 16.0.4, SVG Export Plug-In . SVG Version: 6.00 Build 0)  -->
<!DOCTYPE svg PUBLIC "-//W3C//DTD SVG 1.1//EN" "http://www.w3.org/Graphics/SVG/1.1/DTD/svg11.dtd">
<svg version="1.1" id="Layer_1" xmlns="http://www.w3.org/2000/svg" xmlns:xlink="http://www.w3.org/1999/xlink" x="0px" y="0px"
	 width="40px" height="40px" viewBox="0 0 40 40" enable-background="new 0 0 40 40" xml:space="preserve">
<g>
	<g>
		<path d="M3.25,29.75c11.333,0,22.667,0,34,0c0.413,0,0.692-0.56,0.354-0.854c-5.583-4.833-11.167-9.667-16.75-14.5
			c-0.22-0.19-0.487-0.185-0.707,0c-5.75,4.833-11.5,9.667-17.25,14.5c-0.494,0.415,0.217,1.119,0.707,0.707
			c5.746-4.83,11.493-9.661,17.239-14.491c-0.49,0.412-0.92-0.203-0.037,0.562c0.584,0.505,1.167,1.01,1.75,1.515
			c1.926,1.667,3.853,3.335,5.778,5.002c2.854,2.471,5.708,4.941,8.562,7.412c0.118-0.284,0.235-0.569,0.354-0.854
			c-11.333,0-22.667,0-34,0C2.605,28.75,2.605,29.75,3.25,29.75z"/>
	</g>
</g>
<path fill="none" stroke="#000000" stroke-miterlimit="10" d="M25,8.25c0,0-7.087-5.401-5.75,0.75c1.25,5.75,1.25,5.75,1.25,5.75"/>
</svg>
