<?xml version="1.0" encoding="utf-8"?>
<!-- Generator: Adobe Illustrator 16.0.4, SVG Export Plug-In . SVG Version: 6.00 Build 0)  -->
<!DOCTYPE svg PUBLIC "-//W3C//DTD SVG 1.1//EN" "http://www.w3.org/Graphics/SVG/1.1/DTD/svg11.dtd">
<svg version="1.1" id="Layer_1" xmlns="http://www.w3.org/2000/svg" xmlns:xlink="http://www.w3.org/1999/xlink" x="0px" y="0px"
	 width="40px" height="40px" viewBox="0 0 40 40" enable-background="new 0 0 40 40" xml:space="preserve">
<path fill-rule="evenodd" clip-rule="evenodd" fill="#010101" d="M10.12,15.546c-2.217,3.777-4.186,7.133-6.231,10.621
	c-0.327-0.482-0.589-0.858-0.765-1.104c1.644-2.804,3.219-5.482,4.789-8.162c0.433-0.735,0.85-1.476,1.325-2.191
	c0.581-0.86,1.002-0.843,1.589,0.114c1.439,2.345,2.838,4.725,4.267,7.075c0.307,0.517,0.661,1.009,1.134,1.721
	c2.657-2.891,3.713-6.595,6.174-9.7c1.419,1.521,2.268,3.275,3.412,4.808c1.131,1.526,2.314,3.01,3.634,4.725
	c1.085-1.724,1.998-3.444,3.165-4.98c1.102-1.452,1.379-3.562,3.479-4.598c0,0.521,0.083,0.807-0.018,0.983
	c-2.026,3.397-4.062,6.79-6.043,10.07c-1.356,0.231-1.603-0.763-2.077-1.424c-1.778-2.468-3.53-4.947-5.445-7.664
	c-0.662,1.094-1.163,1.982-1.696,2.854c-1.124,1.82-2.152,3.716-3.416,5.43c-1.007,1.366-1.524,1.168-2.364-0.297
	C13.517,21.177,11.923,18.564,10.12,15.546"/>
<g>
</g>
<g>
</g>
<g>
</g>
<g>
</g>
<g>
</g>
<g>
</g>
</svg>
