<?xml version="1.0" encoding="utf-8"?>
<!-- Generator: Adobe Illustrator 16.0.4, SVG Export Plug-In . SVG Version: 6.00 Build 0)  -->
<!DOCTYPE svg PUBLIC "-//W3C//DTD SVG 1.1//EN" "http://www.w3.org/Graphics/SVG/1.1/DTD/svg11.dtd">
<svg version="1.1" id="Layer_1" xmlns="http://www.w3.org/2000/svg" xmlns:xlink="http://www.w3.org/1999/xlink" x="0px" y="0px"
	 width="40px" height="40px" viewBox="0 0 40 40" enable-background="new 0 0 40 40" xml:space="preserve">
<path fill-rule="evenodd" clip-rule="evenodd" fill="#010101" d="M36.326,4.952v31.587c-1.21,0.37-18.337,0.509-20.98,0.113
	c-0.681-1.497-0.332-3.113-0.349-4.686c-0.029-1.921,0.081-3.831,0.052-5.748c-0.012-0.648-0.255-1.286-0.464-2.235
	c-1.605,2.604-2.932,5.014-4.512,7.237c-1.557,2.195-2.814,4.675-5.387,6.563c-0.129-0.911-0.265-1.423-0.261-1.948
	C4.461,30.1,4.557,24.352,4.572,18.613c0.009-4.074-0.086-8.143-0.121-12.215c0-0.383,0.113-0.772,0.227-1.52
	c3.955,4.856,6.929,9.916,10.181,14.894c0.065-1.754,0.161-3.511,0.196-5.267c0.032-1.766,0.37-3.631-0.081-5.272
	c-0.401-1.501,0.098-2.744,0.077-4.343C22.115,4.722,29.121,4.76,36.326,4.952"/>
<g>
</g>
<g>
</g>
<g>
</g>
<g>
</g>
<g>
</g>
<g>
</g>
</svg>
