<?xml version="1.0" encoding="utf-8"?>
<!-- Generator: Adobe Illustrator 16.0.4, SVG Export Plug-In . SVG Version: 6.00 Build 0)  -->
<!DOCTYPE svg PUBLIC "-//W3C//DTD SVG 1.1//EN" "http://www.w3.org/Graphics/SVG/1.1/DTD/svg11.dtd">
<svg version="1.1" id="Layer_1" xmlns="http://www.w3.org/2000/svg" xmlns:xlink="http://www.w3.org/1999/xlink" x="0px" y="0px"
	 width="40px" height="40px" viewBox="0 0 40 40" enable-background="new 0 0 40 40" xml:space="preserve">
<g>
	<g>
		<path d="M20.25,5.75c8.037,0.181,14.319,6.463,14.5,14.5c0.181,8.036-6.735,14.325-14.5,14.5c-8.036,0.181-14.325-6.735-14.5-14.5
			C5.569,12.213,12.485,5.924,20.25,5.75c0.966-0.021,0.968-1.522,0-1.5c-8.861,0.199-15.801,7.139-16,16
			c-0.199,8.86,7.439,15.808,16,16c8.86,0.199,15.808-7.439,16-16c0.199-8.86-7.439-15.808-16-16
			C19.282,4.228,19.284,5.729,20.25,5.75z"/>
	</g>
</g>
<line fill="none" stroke="#000000" stroke-miterlimit="10" x1="10.25" y1="8.25" x2="30" y2="32"/>
<line fill="none" stroke="#000000" stroke-miterlimit="10" x1="30" y1="8.5" x2="10.25" y2="32.25"/>
<line fill="none" stroke="#000000" stroke-miterlimit="10" x1="20.25" y1="5" x2="20.25" y2="35.5"/>
<line fill="none" stroke="#000000" stroke-miterlimit="10" x1="5" y1="20.25" x2="35.5" y2="20.25"/>
</svg>
