<?xml version="1.0" encoding="utf-8"?>
<!-- Generator: Adobe Illustrator 16.0.4, SVG Export Plug-In . SVG Version: 6.00 Build 0)  -->
<!DOCTYPE svg PUBLIC "-//W3C//DTD SVG 1.1//EN" "http://www.w3.org/Graphics/SVG/1.1/DTD/svg11.dtd">
<svg version="1.1" id="Layer_1" xmlns="http://www.w3.org/2000/svg" xmlns:xlink="http://www.w3.org/1999/xlink" x="0px" y="0px"
	 width="40px" height="40px" viewBox="0 0 40 40" enable-background="new 0 0 40 40" xml:space="preserve">
<path fill-rule="evenodd" clip-rule="evenodd" fill="#010101" d="M30.929,36.054c-0.294-0.179-0.715-0.297-0.884-0.556
	c-0.301-0.477-0.519-1.038-0.699-1.587c-1.511-4.491-2.998-8.996-4.593-13.819c-4.363-0.686-8.914-0.669-13.567-0.417
	c-0.151,0.325-0.32,0.596-0.391,0.896c-0.907,3.681-1.797,7.372-2.689,11.056c-0.276,1.122-0.604,2.232-0.886,3.353
	c-0.188,0.731-0.577,1.146-1.604,0.945c-0.091-2.12,1.073-3.989,1.505-5.997c0.421-1.992,1.17-3.92,1.719-5.888
	c0.567-2.019,0.8-4.139,1.521-5.846c1.389,0,2.497-0.019,3.6,0.006c3.406,0.062,6.817,0.152,10.486,0.236
	c0.489-1.24,1.01-2.653,1.585-4.05c1.398-3.388,2.8-6.78,4.223-10.156c0.479-1.145,0.924-1.375,1.687-1.026
	c0.8,0.371,1.141,1.236,0.686,2.124c-0.647,1.252-1.479,2.396-2.096,3.64c-0.8,1.609-1.471,3.292-2.215,4.931
	c-0.637,1.412-1.398,2.77-1.863,4.229c-0.269,0.852-0.303,1.936-0.044,2.794c1.218,3.993,2.562,7.951,3.88,11.915
	c0.182,0.539,0.528,1.026,0.731,1.56c0.166,0.442,0.22,0.93,0.328,1.402C31.209,35.879,31.075,35.97,30.929,36.054"/>
<g>
</g>
<g>
</g>
<g>
</g>
<g>
</g>
<g>
</g>
<g>
</g>
</svg>
