<?xml version="1.0" encoding="utf-8"?>
<!-- Generator: Adobe Illustrator 16.0.4, SVG Export Plug-In . SVG Version: 6.00 Build 0)  -->
<!DOCTYPE svg PUBLIC "-//W3C//DTD SVG 1.1//EN" "http://www.w3.org/Graphics/SVG/1.1/DTD/svg11.dtd">
<svg version="1.1" id="Layer_1" xmlns="http://www.w3.org/2000/svg" xmlns:xlink="http://www.w3.org/1999/xlink" x="0px" y="0px"
	 width="40px" height="40px" viewBox="0 0 40 40" enable-background="new 0 0 40 40" xml:space="preserve">
<path fill-rule="evenodd" clip-rule="evenodd" fill="#010101" d="M34.234,31.086c0.462,1.378,0.943,2.783,1.388,4.205
	c0.021,0.077-0.326,0.271-0.691,0.568c-0.457-1.083-0.916-2.02-1.257-2.996c-0.417-1.224-0.903-2.312-2.436-2.421
	c-0.278-0.02-0.532-0.195-0.803-0.308c0.087-0.164,0.182-0.334,0.273-0.502c0.456-0.124,0.918-0.252,1.53-0.421
	c-0.462-0.958-1.064-1.868-1.332-2.869c-0.352-1.315-1.988-0.277-2.399-1.552c0.431-0.239,0.846-0.484,1.378-0.786
	c-0.454-0.907-0.896-1.79-1.334-2.653c-0.747-0.184-1.441-0.351-2.138-0.524c-0.01-0.121-0.015-0.246-0.021-0.363
	c0.473-0.225,0.948-0.456,1.563-0.747c-0.605-1.35-1.197-2.682-1.749-3.912c-0.721-0.424-1.713,0.295-2.126-0.881
	c0.424-0.236,0.854-0.481,1.364-0.773c-0.438-1.137-0.868-2.281-1.302-3.424c-0.679-0.081-1.238-0.16-1.762-0.226
	c-0.347-0.945,0.488-0.96,0.862-1.292c-0.092-1.544-0.716-1.692-2.258-1.918C19.083,7.009,18.729,7.215,18,8.617
	c0.029,0.701,1.754,0.44,0.912,1.688c-0.464,0.031-0.973,0.059-1.621,0.098c-0.575,1.071-1.172,2.188-1.709,3.194
	c0.634,0.435,1.158,0.791,1.658,1.129c-0.631,1.282-1.477,0.438-2.412,0.631c-0.508,1.048-1.081,2.239-1.669,3.456
	c0.575,0.539,1.799,0.046,1.702,1.33c-0.815,0.177-1.881,0.118-2.436,0.626c-0.745,0.68-1.086,1.793-1.555,2.646
	c0.085,0.711,1.473,0.711,0.767,1.56c-0.283,0.338-0.972,0.334-1.775,0.575c-0.182,0.407-0.531,1.137-0.87,1.872
	c-0.336,0.73-0.668,1.458-1.028,2.269c0.711,0.218,1.249,0.385,1.754,0.542c0.111,0.964-0.505,1.129-1.105,1.107
	c-1.32-0.047-2.097,0.436-2.319,1.812c-0.077,0.466-0.524,0.867-0.829,1.349c-0.429-0.278-0.714-0.459-1.059-0.677
	c0.371-0.74,0.705-1.42,1.031-2.083c-0.474-0.244-0.914-0.469-1.765-0.904c0.803-0.335,1.257-0.479,1.679-0.705
	c0.542-0.286,1.271-0.508,1.557-0.98c0.655-1.09,1.096-2.316,1.615-3.484c-0.655-0.278-1.204-0.503-1.896-0.788
	c0.829-0.999,1.795-0.67,2.769-0.941c0.518-0.974,1.094-2.051,1.736-3.24c-0.691-0.2-1.276-0.372-1.976-0.573
	c0.126-0.682,0.321-1.016,1.123-0.913c1.407,0.169,1.414,0.101,2.057-1.227c0.397-0.842,0.807-1.677,1.2-2.481
	c-0.66-0.568-1.739,0.143-2.029-1.039c0.426-0.579,1.062-0.563,1.7-0.479c0.757,0.099,1.214-0.213,1.514-0.907
	c0.39-0.907,0.845-1.792,1.325-2.8c-0.807-0.213-1.46-0.383-2.182-0.578c0.608-1.438,1.86-0.549,2.876-1.16
	c0.286-1.039,1.438-2.056,1.033-3.667h4.87c0.606,1.24,1.255,2.296,1.669,3.44c0.316,0.838,0.798,1.035,1.604,1.017
	c0.597-0.013,1.204,0.145,1.92,0.232c-0.678,1.059-0.678,1.059-2.371,1.107c0.051,1.338,0.91,2.346,1.389,3.72
	c0.737,0,1.504-0.077,2.242,0.031c0.287,0.039,0.524,0.474,0.786,0.73c-0.303,0.222-0.581,0.578-0.909,0.638
	c-0.421,0.08-0.888-0.072-1.58-0.156c0.614,1.491,1.145,2.772,1.702,4.105c1.055,0.082,2.131,0.164,3.258,0.251
	c-0.313,1.817-1.566,1.06-2.536,1.2c0.024,1.277,0.962,2.028,1.354,3.021c0.704,0.036,1.357,0,1.979,0.141
	c0.3,0.069,0.522,0.476,0.783,0.728c-0.283,0.242-0.524,0.606-0.844,0.704c-0.348,0.105-0.773-0.049-1.48-0.114
	c0.639,1.343,1.186,2.474,1.812,3.784c0.996,0.109,2.109,0.233,3.253,0.356C36.316,31.114,36.316,31.114,34.234,31.086"/>
<g>
</g>
<g>
</g>
<g>
</g>
<g>
</g>
<g>
</g>
<g>
</g>
</svg>
