<?xml version="1.0" encoding="utf-8"?>
<!-- Generator: Adobe Illustrator 16.0.4, SVG Export Plug-In . SVG Version: 6.00 Build 0)  -->
<!DOCTYPE svg PUBLIC "-//W3C//DTD SVG 1.1//EN" "http://www.w3.org/Graphics/SVG/1.1/DTD/svg11.dtd">
<svg version="1.1" id="Layer_1" xmlns="http://www.w3.org/2000/svg" xmlns:xlink="http://www.w3.org/1999/xlink" x="0px" y="0px"
	 width="40px" height="40px" viewBox="0 0 40 40" enable-background="new 0 0 40 40" xml:space="preserve">
<path fill-rule="evenodd" clip-rule="evenodd" fill="#010101" d="M17.491,4.972c0.305-0.674,0.493-1.947,1.922-1.715
	c1.487,0.244,3.476-0.393,3.911,2.035c0.083,0.438,0.505,0.931,0.908,1.168c0.84,0.48,1.769,0.805,2.57,1.152
	c1.081-0.477,2.116-1.139,3.218-1.316c0.64-0.104,1.654,0.422,2.053,0.98c0.527,0.752,0.847,1.816,0.832,2.74
	c-0.012,0.904-0.551,1.803-0.964,3.035c0.076,0.19,0.3,0.725,0.547,1.248c0.248,0.535,0.528,1.064,0.784,1.588
	c2.496,0.539,3.309,1.379,3.414,3.562c0.079,1.625-0.999,2.857-3.15,3.551c-0.275,0.884-0.532,1.834-0.866,2.75
	c-0.326,0.902-0.469,1.673,0.08,2.617c0.654,1.127,0.139,3.141-0.939,3.911c-0.465,0.33-1.237,0.471-1.807,0.375
	c-0.758-0.138-1.443-0.594-2.302-0.972c-1.281,0.741-2.645,1.506-3.983,2.319c-0.235,0.147-0.405,0.479-0.492,0.77
	c-0.439,1.518-1.549,2.349-2.996,2.454c-1.309,0.087-2.352-0.692-2.967-1.936c-0.129-0.262-0.378-0.516-0.642-0.672
	c-1.12-0.661-2.297-1.251-3.422-1.939c-0.614-0.381-1.139-0.429-1.844-0.21c-0.658,0.21-1.448,0.255-2.114,0.095
	c-1.047-0.266-1.815-0.981-2.339-1.985c-0.66-1.236,0.398-1.944,0.724-2.809c-0.667-1.619-1.297-3.196-1.995-4.746
	c-0.144-0.337-0.495-0.591-0.763-0.865c-1.475-1.484-1.636-3.139-0.078-4.378c1.758-1.407,1.526-3.528,2.322-5.271
	c0.137-0.301-0.188-0.857-0.38-1.252C6.115,9.973,6.28,8.839,7.283,7.822c1.008-1.003,2.135-1.552,3.544-0.906
	c1.212,0.552,2.246,0.121,3.307-0.417C15.154,5.979,16.231,5.543,17.491,4.972 M27.15,30.683c-0.83-3.102,0.243-4.546,4.028-4.146
	c0.34-0.959,0.693-1.942,1.045-2.928c0.336-0.897,0.235-1.664-0.602-2.273c-1.027-0.754-1.031-1.8-0.646-2.856
	c0.264-0.729,0.701-1.396,1.096-2.157c-0.493-1.742-1.102-3.297-3.234-3.903c-1.528-0.44-2.924-1.408-2.364-3.56
	c-1.058-0.566-2.078-1.111-3.067-1.643c-2.054,3.465-4.425,2.249-6.388-0.677c-1.453,0.605-2.92,1.227-4.083,1.717
	c-0.404,1.487-0.523,2.851-1.142,3.919c-0.752,1.297-2.276,0.961-3.548,0.85c-0.534,1.187-1.047,2.316-1.553,3.422
	c1.428,0.818,2.818,1.467,2.825,3.305c0.008,1.927-1.25,2.804-2.965,3.408c0.613,1.222,1.159,2.326,1.693,3.38
	c2.945-0.502,4.5,0.934,4.771,4.907c1.138,0.664,2.302,1.349,3.552,2.089c1.36-2.443,3.11-3.475,5.733-2.086
	c0.271,0.424,0.628,0.965,1.086,1.656C24.679,32.274,25.86,31.508,27.15,30.683"/>
<g>
</g>
<g>
</g>
<g>
</g>
<g>
</g>
<g>
</g>
<g>
</g>
</svg>
