<?xml version="1.0" encoding="utf-8"?>
<!-- Generator: Adobe Illustrator 16.0.4, SVG Export Plug-In . SVG Version: 6.00 Build 0)  -->
<!DOCTYPE svg PUBLIC "-//W3C//DTD SVG 1.1//EN" "http://www.w3.org/Graphics/SVG/1.1/DTD/svg11.dtd">
<svg version="1.1" id="Layer_1" xmlns="http://www.w3.org/2000/svg" xmlns:xlink="http://www.w3.org/1999/xlink" x="0px" y="0px"
	 width="40px" height="40px" viewBox="0 0 40 40" enable-background="new 0 0 40 40" xml:space="preserve">
<path fill-rule="evenodd" clip-rule="evenodd" fill="#010101" d="M10.244,13.087c0.697-1.935,1.295-3.754,2.009-5.519
	c0.217-0.544,0.707-1.025,1.168-1.413c1.973-1.619,4.191-2.678,6.767-2.915c0.467-0.049,0.911-0.365,1.359-0.562
	c2.768,1.071,5.307,2.422,7.24,4.796c2.066,2.522,1.291,5.448,1.522,8.292c2.443-3.65,3.984-7.678,5.415-11.705
	c0.315,0.079,0.374,0.092,0.43,0.118c0.053,0.026,0.101,0.065,0.14,0.105c0.036,0.055,0.075,0.114,0.075,0.167
	c0.025,10.078,0.044,20.164,0.061,30.242c0,0.307-0.066,0.613-0.11,0.984H4.769V4.007C6.885,7.116,8.833,9.959,10.244,13.087
	 M14.657,21.441c1.941,4.024,3.738,7.74,5.645,11.661c0.478-0.538,0.997-0.984,1.343-1.531c1.193-1.837,2.393-3.67,3.464-5.573
	c0.945-1.708,1.719-3.506,2.58-5.266C23.509,23.48,19.341,23.688,14.657,21.441"/>
<g>
</g>
<g>
</g>
<g>
</g>
<g>
</g>
<g>
</g>
<g>
</g>
</svg>
