<?xml version="1.0" encoding="utf-8"?>
<!-- Generator: Adobe Illustrator 16.0.4, SVG Export Plug-In . SVG Version: 6.00 Build 0)  -->
<!DOCTYPE svg PUBLIC "-//W3C//DTD SVG 1.1//EN" "http://www.w3.org/Graphics/SVG/1.1/DTD/svg11.dtd">
<svg version="1.1" id="Layer_1" xmlns="http://www.w3.org/2000/svg" xmlns:xlink="http://www.w3.org/1999/xlink" x="0px" y="0px"
	 width="40px" height="40px" viewBox="0 0 40 40" enable-background="new 0 0 40 40" xml:space="preserve">
<path fill-rule="evenodd" clip-rule="evenodd" fill="#010101" d="M21.091,14.25c0.485,0.525,0.864,1.107,1.395,1.495
	c3.69,2.735,3.695,5.867,2.505,8.992c-0.417,1.092-0.873,2.185-1.301,3.274c-0.941,2.412-0.402,3.79,1.868,5.087
	c1.708,0.976,3.57,1.254,5.467,1.427c0.365,0.03,0.722,0.008,1.518,0.008c-0.517,0.534-0.72,0.939-1.03,1.036
	c-0.571,0.183-1.202,0.267-1.812,0.258c-3.039-0.05-6.07-0.188-9.101-0.208c-2.024-0.016-3.905-0.595-5.798-1.197
	c-0.229-0.076-0.462-0.21-0.635-0.376c-2.248-2.132-4.582-4.287-4.817-7.61c-0.173-2.46,0.05-4.983,1.159-7.257
	c0.889-1.814,2.269-3.263,4.287-3.86c2.164-0.641,3.614-1.871,4.435-4.067c0.894-2.363,2.125-4.604,3.211-6.9
	c0.075-0.166,0.118-0.358,0.208-0.517c0.336-0.629,0.742-1.228,1.58-0.926c0.857,0.305,1.013,1.07,0.79,1.827
	c-0.417,1.427-0.873,2.851-1.446,4.212C22.856,10.66,22,12.319,21.091,14.25"/>
<g>
</g>
<g>
</g>
<g>
</g>
<g>
</g>
<g>
</g>
<g>
</g>
</svg>
