<?xml version="1.0" encoding="utf-8"?>
<!-- Generator: Adobe Illustrator 16.0.4, SVG Export Plug-In . SVG Version: 6.00 Build 0)  -->
<!DOCTYPE svg PUBLIC "-//W3C//DTD SVG 1.1//EN" "http://www.w3.org/Graphics/SVG/1.1/DTD/svg11.dtd">
<svg version="1.1" id="Layer_1" xmlns="http://www.w3.org/2000/svg" xmlns:xlink="http://www.w3.org/1999/xlink" x="0px" y="0px"
	 width="40px" height="40px" viewBox="0 0 40 40" enable-background="new 0 0 40 40" xml:space="preserve">
<path fill-rule="evenodd" clip-rule="evenodd" fill="#010101" d="M3.876,4.475h31.889c0.037,2.159,0.037,4.248,0.115,6.325
	c0.13,3.484,0.33,6.968,0.43,10.454c0.062,1.9-0.119,3.811-0.039,5.705c0.111,2.619,0.375,5.229,0.588,8.052
	c-2.395,0.083-4.979,0.174-7.846-0.037c0.29-0.827,0.464-1.435,0.713-2.014c1.36-3.146,2.722-6.278,4.123-9.413
	c0.655-1.467,0.525-2.803-0.478-4.038c-2.249-2.803-4.435-5.656-6.791-8.362c-1.837-2.113-3.904-4.033-5.901-6.076
	c-1.806,0.599-3.285,1.569-4.461,2.945c-2.289,2.698-4.548,5.418-6.82,8.142c-0.887,1.062-1.751,2.134-2.661,3.176
	c-0.872,1.012-1.095,2.068-0.532,3.317c1.257,2.785,2.497,5.578,3.715,8.387c0.661,1.528,1.269,3.085,1.991,4.805H4.34
	c-0.07-0.657-0.178-1.337-0.189-2.009c-0.068-3.151-0.115-6.303-0.17-9.46c-0.04-2.225-0.105-4.449-0.117-6.678
	C3.848,13.906,3.876,10.115,3.876,6.33V4.475z"/>
<g>
</g>
<g>
</g>
<g>
</g>
<g>
</g>
<g>
</g>
<g>
</g>
</svg>
