<?xml version="1.0" encoding="utf-8"?>
<!-- Generator: Adobe Illustrator 16.0.4, SVG Export Plug-In . SVG Version: 6.00 Build 0)  -->
<!DOCTYPE svg PUBLIC "-//W3C//DTD SVG 1.1//EN" "http://www.w3.org/Graphics/SVG/1.1/DTD/svg11.dtd">
<svg version="1.1" id="Layer_1" xmlns="http://www.w3.org/2000/svg" xmlns:xlink="http://www.w3.org/1999/xlink" x="0px" y="0px"
	 width="40px" height="40px" viewBox="0 0 40 40" enable-background="new 0 0 40 40" xml:space="preserve">
<path fill-rule="evenodd" clip-rule="evenodd" fill="#010101" d="M36.418,13.317v22.58c-10.92,0.131-21.774-0.064-32.686,0.051
	c-0.126-0.457-0.348-0.821-0.309-1.156c0.703-5.162,0.146-10.355,0.266-15.529c0.049-1.856,0.181-3.713,0.246-5.564
	c0.03-0.962,0.522-1.121,1.395-1.06c2.038,0.15,4.093,0.175,6.138,0.274c2.12,0.104,4.237,0.299,6.357,0.34
	c3.681,0.064,7.366,0.049,11.062,0.061C31.301,13.324,33.719,13.317,36.418,13.317 M21.89,25.004
	c0.047-2.476-1.533-5.101-3.341-6.376c-1.675-1.183-3.527-1.004-5.237-0.778c-2.104,0.287-3.824,1.494-4.294,3.835
	c-0.231,1.126-0.63,2.271-0.575,3.393c0.071,1.527,0.486,3.149,1.779,4.091c1.443,1.029,2.995,1.891,4.899,2.021
	c4.223,0.286,6.092-1.928,6.641-5.102C21.843,25.645,21.863,25.197,21.89,25.004"/>
<path fill-rule="evenodd" clip-rule="evenodd" fill="#010101" d="M20.619,3.119v6.72H9.228C8.221,7.625,8.566,5.252,8.647,2.92
	C10.955,2.561,19.204,2.68,20.619,3.119 M19.527,3.685H9.941V8.65c3.104,0.233,6.066,0.455,9.108,0.683
	C19.21,7.479,19.351,5.785,19.527,3.685"/>
<g>
</g>
<g>
</g>
<g>
</g>
<g>
</g>
<g>
</g>
<g>
</g>
</svg>
