<?xml version="1.0" encoding="utf-8"?>
<!-- Generator: Adobe Illustrator 16.0.4, SVG Export Plug-In . SVG Version: 6.00 Build 0)  -->
<!DOCTYPE svg PUBLIC "-//W3C//DTD SVG 1.1//EN" "http://www.w3.org/Graphics/SVG/1.1/DTD/svg11.dtd">
<svg version="1.1" id="Layer_1" xmlns="http://www.w3.org/2000/svg" xmlns:xlink="http://www.w3.org/1999/xlink" x="0px" y="0px"
	 width="40px" height="40px" viewBox="0 0 40 40" enable-background="new 0 0 40 40" xml:space="preserve">
<path fill-rule="evenodd" clip-rule="evenodd" fill="#010101" d="M35.299,4.812c-0.148,1.218-0.351,2.228-0.376,3.241
	c-0.092,3.408-0.226,6.821-0.122,10.22c0.077,2.565,0.488,5.106,0.803,8.178c-3.625,3.414-7.636,7.176-11.708,10.994
	c-2.13-1.332-4.399-2.575-6.475-4.081c-2.639-1.913-5.528-3.351-8.414-4.814c-1.345-0.671-2.664-1.413-3.94-2.198
	c-1.12-0.681-1.136-1.203-0.107-2.062c2.072-1.721,4.169-3.407,6.256-5.11c0.956-0.782,1.908-1.567,2.67-2.203
	c3.315,1.703,6.325,3.252,9.418,4.836c0.643-1.761,0.583-3.449,0.273-5.08c-0.191-1.013,0.141-1.574,0.787-2.189
	c1.651-1.573,3.304-3.147,4.881-4.787c1.458-1.514,2.826-3.116,4.236-4.677C34.024,4.481,34.604,4.143,35.299,4.812 M24.868,34.46
	c0.896-0.604,1.484-0.895,1.942-1.332c2.092-1.979,4.075-4.079,6.246-5.969c0.914-0.799,1.048-1.577,0.994-2.66
	c-0.166-3.062-0.263-6.126-0.316-9.188c-0.052-2.744-0.011-5.483-0.011-8.459c-2.96,3.057-5.804,5.987-8.855,9.143V34.46z
	 M5.53,25.397c1.512,0.815,2.752,1.499,4.064,2.216c2.722-2.456,5.389-4.874,8.18-7.396c-0.746-0.386-1.462-0.682-2.096-1.095
	c-1.093-0.707-2.069-0.453-2.968,0.282C10.396,21.304,8.113,23.237,5.53,25.397"/>
<g>
</g>
<g>
</g>
<g>
</g>
<g>
</g>
<g>
</g>
<g>
</g>
</svg>
