<?xml version="1.0" encoding="utf-8"?>
<!-- Generator: Adobe Illustrator 16.0.4, SVG Export Plug-In . SVG Version: 6.00 Build 0)  -->
<!DOCTYPE svg PUBLIC "-//W3C//DTD SVG 1.1//EN" "http://www.w3.org/Graphics/SVG/1.1/DTD/svg11.dtd">
<svg version="1.1" id="Layer_1" xmlns="http://www.w3.org/2000/svg" xmlns:xlink="http://www.w3.org/1999/xlink" x="0px" y="0px"
	 width="40px" height="40px" viewBox="0 0 40 40" enable-background="new 0 0 40 40" xml:space="preserve">
<path fill-rule="evenodd" clip-rule="evenodd" fill="#010101" d="M16.661,34.815c-2.707,0.453-5.345,0.98-8.173,0.152
	c0.628-2.652,1.355-5.152,1.793-7.702c0.484-2.882,0.755-5.801,1.026-8.715c0.038-0.405-0.33-0.94-0.646-1.265
	c-1.166-1.164-2.4-2.269-3.702-3.488c0.292-0.269,0.548-0.521,0.816-0.75c2.886-2.424,5.566-5.046,8.034-7.908
	c0.852-0.987,1.917-1.78,2.963-2.736c1.16,1.055,2.157,1.899,3.069,2.812c1.118,1.129,2.141,2.347,3.255,3.481
	c1.19,1.204,2.419,2.375,3.66,3.536c0.783,0.734,0.872,1.894,0.159,2.641c-1.928,2.022-3.852,4.049-5.779,6.07
	c-0.84,0.876-1.633,1.805-2.55,2.586c-0.608,0.521-1.403,0.811-2.006,1.143c-1.825-1.839-3.513-3.533-5.196-5.229
	c-0.109,0.06-0.22,0.116-0.335,0.181c0.522,2.536,0.985,5.086,1.581,7.602C15.22,29.715,15.938,32.16,16.661,34.815"/>
<g>
</g>
<g>
</g>
<g>
</g>
<g>
</g>
<g>
</g>
<g>
</g>
</svg>
