<?xml version="1.0" encoding="utf-8"?>
<!-- Generator: Adobe Illustrator 16.0.4, SVG Export Plug-In . SVG Version: 6.00 Build 0)  -->
<!DOCTYPE svg PUBLIC "-//W3C//DTD SVG 1.1//EN" "http://www.w3.org/Graphics/SVG/1.1/DTD/svg11.dtd">
<svg version="1.1" id="Layer_1" xmlns="http://www.w3.org/2000/svg" xmlns:xlink="http://www.w3.org/1999/xlink" x="0px" y="0px"
	 width="40px" height="40px" viewBox="0 0 40 40" enable-background="new 0 0 40 40" xml:space="preserve">
<path fill-rule="evenodd" clip-rule="evenodd" fill="#010101" d="M9.837,28.152c0.398-2.668,0.73-5.342,1.21-7.99
	c0.545-2.998,1.152-5.989,1.876-8.949c0.403-1.641,0.931-3.293,1.698-4.785c1.57-3.045,5.121-3.976,7.893-0.606
	c0.866,1.066,1.505,2.377,2.027,3.669c0.658,1.623,1.057,3.35,1.611,5.019c0.377,1.104,0.854,2.168,1.259,3.264
	c0.76,2.073,0.87,4.301,1.521,6.402c0.407,1.348,0.818,2.696,1.127,4.071c0.168,0.729,0.196,1.507,0.151,2.258
	c-0.122,2.692-2.204,3.666-4.225,4.629c-0.68,0.32-1.467,0.49-2.219,0.556c-1.982,0.183-3.973,0.414-5.948,0.326
	c-1.11-0.049-2.211-0.673-3.295-1.098c-0.539-0.209-1.006-0.613-1.548-0.816c-2.037-0.742-2.948-2.217-2.932-4.333
	c0.006-0.537,0-1.06,0-1.593L9.837,28.152z M20.216,25.746c1.966-1.819,3.91-3.39,5.421-5.453c0.764-1.048,0.858-1.871,0.37-3.05
	c-0.827-1.995-1.402-4.093-2.183-6.11c-0.54-1.409-1.121-2.834-1.925-4.113c-0.505-0.799-1.358-1.445-2.178-1.981
	c-1.006-0.657-1.8-0.487-2.736,0.27c-1.749,1.404-2.479,3.355-2.945,5.442c-0.521,2.282-0.939,4.591-1.521,6.862
	c-0.246,0.971-0.153,1.688,0.624,2.336c1.536,1.274,3.036,2.586,4.564,3.857C18.507,24.473,19.351,25.08,20.216,25.746
	 M19.827,27.353c-2.294,1.868-4.759,3.628-7.815,4.841c0.694,0.302,1.256,0.405,1.613,0.727c2.052,1.852,4.444,2.221,7.058,1.806
	c0.405-0.061,0.838,0.012,1.236-0.049c1.157-0.17,2.352-0.262,3.45-0.607c0.97-0.309,2.02-0.704,2.369-1.837
	C25.153,30.643,22.616,29.073,19.827,27.353 M11.963,20.335c-0.511,3.61-1.187,6.881-0.576,10.548
	c3.164-0.546,5.378-2.469,7.713-4.412C16.73,24.438,14.483,22.507,11.963,20.335 M21,26.5c2.39,2.024,4.936,3.318,7.967,4.517
	c-0.081-1.271-0.01-2.269-0.227-3.197c-0.542-2.315-1.216-4.604-1.889-7.102c-0.928,1.067-1.739,2.112-2.675,3.036
	C23.229,24.694,22.152,25.511,21,26.5"/>
<g>
</g>
<g>
</g>
<g>
</g>
<g>
</g>
<g>
</g>
<g>
</g>
</svg>
