<?xml version="1.0" encoding="utf-8"?>
<!-- Generator: Adobe Illustrator 16.0.4, SVG Export Plug-In . SVG Version: 6.00 Build 0)  -->
<!DOCTYPE svg PUBLIC "-//W3C//DTD SVG 1.1//EN" "http://www.w3.org/Graphics/SVG/1.1/DTD/svg11.dtd">
<svg version="1.1" id="Layer_1" xmlns="http://www.w3.org/2000/svg" xmlns:xlink="http://www.w3.org/1999/xlink" x="0px" y="0px"
	 width="40px" height="40px" viewBox="0 0 40 40" enable-background="new 0 0 40 40" xml:space="preserve">
<path fill-rule="evenodd" clip-rule="evenodd" fill="#010101" d="M2.732,36.422c0-3.311,0.028-6.315-0.014-9.324
	c-0.044-3.42-0.177-6.831-0.248-10.249c-0.028-1.272,0.784-2.147,1.657-2.837c3.625-2.843,7.122-5.825,10.409-9.061
	c1.344-1.322,2.915-1.88,4.776-1.796c1.06,0.048,2.123,0.009,3.265,0.009c1.918,1.456,3.98,2.912,5.916,4.518
	c2.432,2.019,4.827,4.093,7.076,6.309c0.556,0.548,0.595,1.736,0.648,2.645c0.09,1.499,0.018,3.014-0.016,4.519
	c-0.055,2.845-0.396,5.673-0.112,8.52c0.162,1.699,0.211,3.406,0.343,5.104c0.116,1.494,0.033,1.664-1.486,1.645
	c-3.099-0.049-6.197-0.225-9.294-0.249c-5.381-0.041-10.76-0.037-16.145,0.007c-1.706,0.014-3.402,0.229-5.108,0.319
	C3.841,36.531,3.296,36.448,2.732,36.422 M25.989,15.457c-0.93,0-1.405,0.012-1.88-0.008c-1.751-0.068-3.505-0.15-5.262-0.228
	c-0.861-0.041-1.497,0.28-2.181,0.878c-3.026,2.681-6.143,5.264-9.218,7.899c-0.242,0.209-0.399,0.519-0.688,0.898
	c2.39-0.095,4.577-0.25,6.766-0.253c1.476-0.004,2.687-0.489,3.768-1.448c1.696-1.51,3.392-3.013,5.086-4.521
	C23.492,17.688,24.606,16.69,25.989,15.457 M7.214,25.968c1.388,1.427,2.563,2.673,3.778,3.873c1.659,1.633,3.339,3.242,5.026,4.842
	c0.207,0.203,0.518,0.425,0.792,0.42c2.304-0.021,4.62-0.097,7.169-0.158c-2.47-3.497-5.262-6.367-8.279-9.038
	c-0.25-0.226-0.681-0.389-1.013-0.376C12.294,25.641,9.906,25.801,7.214,25.968 M33.774,35.14c-0.339-0.464-0.49-0.725-0.701-0.938
	c-2.657-2.705-5.311-5.409-8.014-8.081c-0.288-0.284-0.761-0.525-1.161-0.534c-2.188-0.056-4.362-0.031-6.538-0.031
	c-0.024,0.196-0.06,0.284-0.036,0.314c2.238,2.481,4.456,4.992,6.762,7.403c0.719,0.756,1.668,1.674,2.593,1.777
	C28.896,35.312,31.181,35.14,33.774,35.14 M34.027,15.694c-0.024-0.118-0.053-0.236-0.08-0.357c-0.657,0-1.327-0.014-1.981,0
	c-1.051,0.021-2.124,0.188-3.15,0.044c-0.802-0.11-1.312,0.111-1.863,0.591c-2.021,1.803-4.062,3.572-6.089,5.376
	c-1.039,0.937-2.048,1.933-3.211,3.036c2.127,0.113,3.991,0.217,5.849,0.303c0.875,0.038,1.508-0.301,2.139-0.969
	c1.462-1.559,3.053-2.996,4.601-4.469C31.488,18.051,32.764,16.88,34.027,15.694 M3.985,24.961c0.132,0.106,0.258,0.221,0.389,0.334
	c1.947-1.483,3.833-3.059,5.651-4.692c1.877-1.692,3.976-3.167,5.901-5.438c-2.776,0.172-5.133,0.308-7.481,0.478
	c-0.293,0.021-0.643,0.182-0.851,0.384c-1.079,1.054-2.152,2.126-3.177,3.229c-0.244,0.25-0.408,0.665-0.413,1.006
	C3.966,21.827,3.985,23.392,3.985,24.961 M3.947,26.236c0,0.749,0.042,1.321-0.005,1.884c-0.232,3.013-0.243,3.018,1.74,5.183
	c0.389,0.413,0.814,0.785,1.225,1.181c0.144,0.129,0.275,0.35,0.424,0.354c2.265,0.051,4.533,0.608,7.192-0.066
	c-3.088-3.05-5.977-5.896-8.852-8.729C5.093,26.108,4.595,26.164,3.947,26.236 M34.886,34.271c-0.352-2.976,0.436-5.884-0.38-8.759
	c-2.644,0.102-5.163,0.198-8.044,0.306C29.439,28.81,32.165,31.537,34.886,34.271 M34.772,16.662
	c-3.001,2.708-5.91,4.871-8.562,7.868c3.163,0.185,5.882,0.185,8.562-0.487V16.662z M6.015,35.217
	c-0.884-0.896-1.529-1.545-2.248-2.266C3.952,35.153,3.952,35.153,6.015,35.217 M6.015,16.063c-2.156-0.101-2.156-0.101-1.874,1.759
	C4.818,17.186,5.419,16.624,6.015,16.063"/>
<g>
</g>
<g>
</g>
<g>
</g>
<g>
</g>
<g>
</g>
<g>
</g>
</svg>
